<svg width="1200" height="1200" viewBox="0 0 1200 1200" fill="none" xmlns="http://www.w3.org/2000/svg">
  <g stroke="#9CA3AF" stroke-width="10" stroke-linecap="square" stroke-linejoin="miter">
    <path d="M294 452L360 336L506 304L628 330L754 314L884 386L922 520L878 642L764 730L618 760L468 742L346 674L278 564L294 452Z"/>
    <path d="M358 352L296 274L328 220L404 248L446 312"/>
    <path d="M742 326L818 250L892 274L902 344L842 396"/>
    <path d="M448 748L432 978"/>
    <path d="M574 758L566 988"/>
    <path d="M724 744L734 980"/>
    <path d="M832 692L860 972"/>
    <path d="M914 516L1020 502L1058 558L1010 626L892 624"/>
    <path d="M1004 520L1086 472L1128 516L1072 568"/>
    <path d="M372 476C406 432 468 406 544 414C606 420 650 448 662 498C674 546 644 594 588 616C520 644 428 632 382 584C348 548 344 510 372 476Z"/>
    <path d="M418 490L476 522"/>
    <path d="M540 470L536 536"/>
    <path d="M608 514C634 516 658 530 676 556"/>
    <path d="M492 638C526 670 582 688 646 686"/>
    <path d="M322 652L248 700L212 792L250 876L344 898"/>
    <path d="M314 654L394 714"/>
  </g>
</svg>
